<svg width="220" height="220" viewBox="0 0 220 220" fill="none" xmlns="http://www.w3.org/2000/svg">
<path d="M195.325 154.792H115.795C115.111 154.791 114.456 154.519 113.973 154.035C113.49 153.552 113.218 152.897 113.216 152.214V36.3748C113.216 35.691 113.488 35.0351 113.972 34.5516C114.455 34.068 115.111 33.7964 115.795 33.7964H195.325C196.009 33.7964 196.664 34.068 197.148 34.5516C197.632 35.0351 197.903 35.691 197.903 36.3748V152.214C197.902 152.897 197.63 153.552 197.147 154.035C196.663 154.519 196.008 154.791 195.325 154.792ZM115.795 33.9064C115.14 33.9064 114.512 34.1665 114.049 34.6294C113.586 35.0923 113.326 35.7201 113.326 36.3748V152.214C113.326 152.868 113.586 153.496 114.049 153.959C114.512 154.422 115.14 154.682 115.795 154.682H195.325C195.979 154.682 196.607 154.422 197.07 153.959C197.533 153.496 197.793 152.868 197.793 152.214V36.3748C197.793 35.7201 197.533 35.0923 197.07 34.6294C196.607 34.1665 195.979 33.9064 195.325 33.9064H115.795Z" fill="#EBEBEB"/>
<path d="M103.616 154.792H24.09C23.4058 154.792 22.7495 154.52 22.2652 154.037C21.781 153.554 21.5084 152.898 21.5072 152.214V36.3748C21.5072 36.0358 21.574 35.7002 21.7039 35.3871C21.8337 35.074 22.0241 34.7895 22.264 34.55C22.5038 34.3105 22.7886 34.1207 23.1019 33.9914C23.4153 33.8621 23.751 33.7958 24.09 33.7964H103.616C104.299 33.7964 104.955 34.068 105.439 34.5516C105.922 35.0351 106.194 35.691 106.194 36.3748V152.214C106.194 152.552 106.127 152.887 105.998 153.2C105.868 153.513 105.678 153.797 105.439 154.037C105.199 154.276 104.915 154.466 104.602 154.596C104.289 154.725 103.954 154.792 103.616 154.792ZM24.09 33.9064C23.4349 33.9064 22.8066 34.1663 22.343 34.6291C21.8794 35.0919 21.6184 35.7197 21.6172 36.3748V152.214C21.6184 152.869 21.8794 153.496 22.343 153.959C22.8066 154.422 23.4349 154.682 24.09 154.682H103.616C103.94 154.682 104.261 154.618 104.56 154.494C104.86 154.37 105.132 154.188 105.361 153.959C105.59 153.73 105.772 153.458 105.896 153.158C106.02 152.859 106.084 152.538 106.084 152.214V36.3748C106.084 36.0506 106.02 35.7297 105.896 35.4302C105.772 35.1307 105.59 34.8586 105.361 34.6294C105.132 34.4002 104.86 34.2183 104.56 34.0943C104.261 33.9702 103.94 33.9064 103.616 33.9064H24.09Z" fill="#EBEBEB"/>
<path d="M220 181.663H0V181.773H220V181.663Z" fill="#E0E0E0"/>
<path d="M175.67 148.764C170.399 150.238 164.824 150.238 159.553 148.764C153.56 147.061 146.96 143.88 149.904 137.562C152.174 132.722 159.839 127.714 158.114 123.279C156.389 118.844 144.914 114.404 153.358 106.33C161.801 98.2564 160.486 80.3704 166.751 79.4904C167.043 79.442 167.34 79.442 167.631 79.4904C167.923 79.4426 168.22 79.4426 168.511 79.4904C174.772 80.3704 173.474 98.2476 181.896 106.33C190.318 114.413 178.878 118.844 177.148 123.279C175.419 127.714 183.088 132.713 185.359 137.562C188.285 143.88 181.65 147.061 175.67 148.764Z" fill="#F5F5F5"/>
<path d="M169.259 181.72H165.968L167.147 97.5171H168.08L169.259 181.72Z" fill="#E0E0E0"/>
<path d="M167.288 117.19C162.303 115.306 159.68 108.654 159.57 108.39L159.98 108.231C160.006 108.297 162.642 114.985 167.46 116.798L167.288 117.19Z" fill="#E0E0E0"/>
<path d="M162.078 112.86C161.498 112.86 159.02 112.825 157.964 112.248L158.176 111.861C159.249 112.451 162.166 112.42 162.193 112.42V112.86H162.078Z" fill="#E0E0E0"/>
<path d="M168.049 133.734L167.891 133.324C172.696 131.507 175.327 124.824 175.371 124.758L175.784 124.916C175.657 125.198 173.03 131.85 168.049 133.734Z" fill="#E0E0E0"/>
<path d="M173.254 129.404H173.136V128.964C173.162 128.964 176.084 128.995 177.153 128.405L177.364 128.792C176.317 129.36 173.84 129.404 173.254 129.404Z" fill="#E0E0E0"/>
<path d="M168.102 109.063L167.838 108.711C167.873 108.68 171.552 105.895 173.268 101.635L173.672 101.803C171.912 106.176 168.137 109.032 168.102 109.063Z" fill="#E0E0E0"/>
<path d="M46.728 148.764C41.4567 150.238 35.882 150.238 30.6108 148.764C24.64 147.061 18.0004 143.88 20.9616 137.562C23.232 132.722 30.8968 127.714 29.172 123.279C27.4472 118.844 15.994 114.4 24.4156 106.33C32.8372 98.2608 31.5436 80.3704 37.8092 79.4904C38.1005 79.442 38.3978 79.442 38.6892 79.4904C38.9805 79.4426 39.2778 79.4426 39.5692 79.4904C45.826 80.3704 44.5324 98.2476 52.954 106.33C61.3756 114.413 49.9356 118.844 48.2064 123.279C46.4772 127.714 54.1464 132.713 56.4124 137.562C59.3428 143.88 52.7076 147.061 46.728 148.764Z" fill="#F5F5F5"/>
<path d="M40.3172 181.72H37.026L38.2052 97.5171H39.138L40.3172 181.72Z" fill="#E0E0E0"/>
<path d="M38.346 117.19C33.3608 115.306 30.734 108.654 30.6284 108.39L31.0376 108.231C31.064 108.297 33.6776 114.985 38.5176 116.798L38.346 117.19Z" fill="#E0E0E0"/>
<path d="M33.1365 112.86C32.5513 112.86 30.0565 112.825 29.0225 112.248L29.2337 111.861C30.3073 112.451 33.2201 112.42 33.2509 112.42V112.86H33.1365Z" fill="#E0E0E0"/>
<path d="M39.1029 133.734L38.9489 133.324C43.7537 131.507 46.3849 124.824 46.4289 124.758L46.8381 124.916C46.7149 125.198 44.0881 131.85 39.1029 133.734Z" fill="#E0E0E0"/>
<path d="M44.3124 129.404H44.1892V128.964C44.2156 128.964 47.1328 128.995 48.2064 128.405L48.4176 128.792C47.3748 129.36 44.88 129.404 44.3124 129.404Z" fill="#E0E0E0"/>
<path d="M39.16 109.063L38.896 108.711C38.9312 108.68 42.6052 105.895 44.3212 101.635L44.7304 101.803C42.966 106.176 39.1952 109.032 39.16 109.063Z" fill="#E0E0E0"/>
<path d="M105.547 66.6731C105.618 65.3751 105.305 63.9583 103.849 63.3159C100.826 61.9695 98.6436 64.4819 98.6436 64.4819C98.6436 64.4819 97.4688 56.2627 90.9568 56.1219C84.4448 55.9811 83.4548 64.0419 83.4548 64.0419C83.4548 64.0419 80.8412 61.2787 78.1748 61.9915C76.4676 62.4315 75.1564 64.9263 74.4304 66.6511L105.547 66.6731Z" fill="#EBEBEB"/>
<path d="M49.346 50.006C49.324 48.7168 48.9412 42.0508 43.626 42.064C37.7432 42.064 37.0832 48.8664 37.0832 48.8664C37.0832 48.8664 35.706 45.5092 32.0276 46.0548C29.502 46.4288 28.2964 49.214 27.9972 50.0148L49.346 50.006Z" fill="#EBEBEB"/>
<path d="M141.764 48.3999C141.737 47.1107 141.359 40.4447 136.044 40.4799C130.161 40.4799 129.501 47.2867 129.501 47.2867C129.501 47.2867 128.124 43.9251 124.445 44.4707C121.92 44.8447 120.71 47.6299 120.415 48.4307L141.764 48.3999Z" fill="#EBEBEB"/>
<path d="M77.6918 51.8257C80.8913 48.6262 80.8913 43.4388 77.6918 40.2393C74.4923 37.0398 69.3049 37.0398 66.1054 40.2393C62.906 43.4388 62.906 48.6262 66.1054 51.8257C69.3049 55.0251 74.4923 55.0251 77.6918 51.8257Z" fill="#F5F5F5"/>
<path d="M81.0436 181.72C81.0436 179.991 80.5816 171.081 71.016 169.69C60.412 168.15 55.9592 178.27 55.9592 178.27C55.9592 178.27 54.1068 174.438 50.82 174.09C45.98 173.58 43.5336 178.27 43.5336 178.27C43.5336 178.27 36.08 170.13 26.84 171.67C18.6912 173.03 16.3592 180.074 15.9236 181.72H81.0436Z" fill="#EBEBEB"/>
<path d="M108.042 181.773C108.042 181.773 102.485 176.101 104.337 174.711C106.19 173.32 109.12 179.489 109.12 179.489C109.12 179.489 109.344 174.209 111.637 174.526C113.929 174.843 110.686 181.773 110.686 181.773H108.042Z" fill="#EBEBEB"/>
<path d="M152.706 181.773C152.706 181.773 158.264 176.101 156.411 174.711C154.559 173.32 151.611 179.489 151.611 179.489C151.611 179.489 151.386 174.209 149.094 174.526C146.802 174.843 150.04 181.773 150.04 181.773H152.706Z" fill="#EBEBEB"/>
<path d="M199.157 181.663C198.493 179.516 196.517 176.022 190.758 174.821C182.195 173.061 178.878 179.423 178.878 179.423C170.623 176.484 166.003 179.34 163.794 181.663H199.157Z" fill="#EBEBEB"/>
<path d="M112.072 199.632C164.338 199.632 206.708 198.417 206.708 196.918C206.708 195.418 164.338 194.203 112.072 194.203C59.8069 194.203 17.4373 195.418 17.4373 196.918C17.4373 198.417 59.8069 199.632 112.072 199.632Z" fill="#F5F5F5"/>
<path d="M163.984 67.5884C163.984 67.5884 169.118 82.8564 179.92 80.4716C186.718 78.9712 185.425 73.1588 185.425 73.1588C185.425 73.1588 194.41 77.6732 199.382 70.0788C204.301 62.568 198.185 57.002 198.185 57.002C198.185 57.002 204.301 59.2284 206.105 54.56C207.57 50.8024 198.471 47.52 198.471 47.52L163.984 67.5884Z" fill="#08A045"/>
<path opacity="0.3" d="M163.984 67.5884C163.984 67.5884 169.118 82.8564 179.92 80.4716C186.718 78.9712 185.425 73.1588 185.425 73.1588C185.425 73.1588 194.41 77.6732 199.382 70.0788C204.301 62.568 198.185 57.002 198.185 57.002C198.185 57.002 204.301 59.2284 206.105 54.56C207.57 50.8024 198.471 47.52 198.471 47.52L163.984 67.5884Z" fill="white"/>
<path d="M171.974 69.4715C171.974 69.4715 176.88 131.476 169.118 196.922H183.81C183.81 196.922 175.965 96.2279 178.402 64.6799L171.974 69.4715Z" fill="#08A045"/>
<path d="M178.055 92.2546C178.055 92.2546 182.93 91.0578 185.896 87.903C189.416 84.1718 191.994 82.0774 195.65 77.7302C195.65 77.7302 191.475 85.1662 188.417 88.7038C185.583 91.9598 178.2 98.0758 178.2 98.0758L178.055 92.2546Z" fill="#08A045"/>
<path d="M173.954 83.9826C173.954 83.9826 169.286 82.1214 166.786 78.5882C163.83 74.4082 161.555 71.9882 158.536 67.1482C158.536 67.1482 161.643 75.0682 164.182 79.0282C166.531 82.6582 173.347 89.5618 173.347 89.5618L173.954 83.9826Z" fill="#08A045"/>
<path d="M159.46 44.3474C159.46 44.3474 149.6 39.6746 145.09 48.8618C140.58 58.049 152.275 65.5598 152.275 65.5598C152.275 65.5598 147.105 73.9594 156.024 77.7478C163.341 80.8542 168.485 72.723 168.485 72.723C168.485 72.723 175.921 78.443 181.012 68.0986C186.102 57.7542 179.194 32.705 159.46 44.3474Z" fill="#08A045"/>
<path opacity="0.3" d="M159.46 44.3474C159.46 44.3474 149.6 39.6746 145.09 48.8618C140.58 58.049 152.275 65.5598 152.275 65.5598C152.275 65.5598 147.105 73.9594 156.024 77.7478C163.341 80.8542 168.485 72.723 168.485 72.723C168.485 72.723 175.921 78.443 181.012 68.0986C186.102 57.7542 179.194 32.705 159.46 44.3474Z" fill="white"/>
<path d="M164.828 19.4963C164.828 19.4963 151.21 26.8399 149.934 35.5959C148.658 44.3519 160.054 45.9535 160.054 45.9535C160.054 45.9535 151.853 59.1227 157.551 64.1167C163.249 69.1107 172.63 61.2567 172.63 61.2567C172.63 61.2567 181.157 72.6351 189.614 69.5639C198.07 66.4927 195.976 55.5191 195.976 55.5191C195.976 55.5191 211.97 46.0767 203.821 34.2803C195.672 22.4839 184.228 26.8927 184.228 26.8927C184.228 26.8927 179.793 11.4135 164.828 19.4963Z" fill="#08A045"/>
<path opacity="0.5" d="M164.828 19.4963C164.828 19.4963 151.21 26.8399 149.934 35.5959C148.658 44.3519 160.054 45.9535 160.054 45.9535C160.054 45.9535 151.853 59.1227 157.551 64.1167C163.249 69.1107 172.63 61.2567 172.63 61.2567C172.63 61.2567 181.157 72.6351 189.614 69.5639C198.07 66.4927 195.976 55.5191 195.976 55.5191C195.976 55.5191 211.97 46.0767 203.821 34.2803C195.672 22.4839 184.228 26.8927 184.228 26.8927C184.228 26.8927 179.793 11.4135 164.828 19.4963Z" fill="white"/>
<path d="M196.68 197.036C196.077 195.096 194.194 190.52 189.693 189.737C183.973 188.742 180.844 195.017 180.844 195.017C180.844 195.017 177.87 191.215 170.931 191.642C169.166 191.699 167.448 192.229 165.957 193.175C164.466 194.122 163.256 195.45 162.452 197.023L196.68 197.036Z" fill="#08A045"/>
<path opacity="0.5" d="M196.68 197.036C196.077 195.096 194.194 190.52 189.693 189.737C183.973 188.742 180.844 195.017 180.844 195.017C180.844 195.017 177.87 191.215 170.931 191.642C169.166 191.699 167.448 192.229 165.957 193.175C164.466 194.122 163.256 195.45 162.452 197.023L196.68 197.036Z" fill="white"/>
<path d="M153.732 196.24C153.732 196.24 148.346 190.744 150.141 189.398C151.936 188.052 154.792 194.04 154.792 194.04C154.792 194.04 155.012 188.94 157.234 189.231C159.456 189.521 156.314 196.271 156.314 196.271L153.732 196.24Z" fill="#08A045"/>
<path opacity="0.5" d="M153.732 196.24C153.732 196.24 148.346 190.744 150.141 189.398C151.936 188.052 154.792 194.04 154.792 194.04C154.792 194.04 155.012 188.94 157.234 189.235C159.456 189.53 156.314 196.275 156.314 196.275L153.732 196.24Z" fill="white"/>
<path d="M43.7845 193.23C43.7845 193.23 36.6125 184.03 39.7365 182.82C42.8605 181.61 44.8537 189.05 44.8537 189.05C44.8537 189.05 45.5533 179.208 48.4837 179.96C51.3349 180.695 46.7237 190.26 46.7237 190.26C46.7237 190.26 48.7433 186.19 51.3833 186.3C54.0233 186.41 48.2637 192.865 48.2637 192.865L43.7845 193.23Z" fill="#08A045"/>
<g opacity="0.4">
<path d="M43.7845 193.23C43.7845 193.23 36.6125 184.03 39.7365 182.82C42.8605 181.61 44.8537 189.05 44.8537 189.05C44.8537 189.05 45.5533 179.208 48.4837 179.96C51.3349 180.695 46.7237 190.26 46.7237 190.26C46.7237 190.26 48.7433 186.19 51.3833 186.3C54.0233 186.41 48.2637 192.865 48.2637 192.865L43.7845 193.23Z" fill="white"/>
</g>
<path d="M74.9276 197.696C75.9704 196.376 77.3828 194.335 76.1596 194.286C74.3468 194.212 72.9608 197.001 72.9608 197.001C72.9608 197.001 76.1376 190.441 74.184 189.935C72.2304 189.429 71.72 196.17 71.72 196.17C71.72 196.17 70.3516 191.066 68.2 191.897C66.6864 192.482 68.6928 195.796 70.004 197.696H74.9276Z" fill="#08A045"/>
<g opacity="0.4">
<path d="M74.9276 197.696C75.9704 196.376 77.3828 194.335 76.1596 194.286C74.3468 194.212 72.9608 197.001 72.9608 197.001C72.9608 197.001 76.1376 190.441 74.184 189.935C72.2304 189.429 71.72 196.17 71.72 196.17C71.72 196.17 70.3516 191.066 68.2 191.897C66.6864 192.482 68.6928 195.796 70.004 197.696H74.9276Z" fill="white"/>
</g>
<path d="M25.52 197.696C25.52 197.696 29.7484 190.04 35.3144 188.989C42.3544 187.669 45.8744 192.72 45.8744 192.72C45.8744 192.72 48.2372 189.473 52.2544 189.988C55.1232 190.357 57.1164 192.72 57.1164 192.72C57.1164 192.72 61.9344 189.2 65.7844 191.29C69.4496 193.279 70.3076 197.696 70.3076 197.696H25.52Z" fill="#08A045"/>
<path d="M131.437 83.0985C130.658 87.0233 129.708 90.8249 128.616 94.6617C128.071 96.5757 127.481 98.4809 126.826 100.382C126.168 102.346 125.41 104.276 124.555 106.163C124.077 107.245 123.506 108.283 122.848 109.265C122.631 109.579 122.397 109.882 122.148 110.172C121.792 110.583 121.389 110.95 120.947 111.267C120.333 111.696 119.613 111.947 118.866 111.993C118.44 112.023 118.012 111.992 117.594 111.901C117.109 111.799 116.637 111.638 116.191 111.421C115.597 111.142 115.027 110.814 114.488 110.44C114.008 110.101 113.573 109.762 113.168 109.424C112.332 108.742 111.562 108.055 110.818 107.351C109.34 105.948 107.954 104.509 106.616 103.035C105.279 101.561 103.976 99.8845 102.749 98.3049L105.53 95.7221C108.57 98.0805 111.619 100.518 114.668 102.683C115.43 103.22 116.186 103.743 116.934 104.205L117.374 104.482C117.533 104.122 117.696 103.73 117.845 103.334C118.461 101.706 118.989 99.9109 119.513 98.1113C120.036 96.3117 120.507 94.4637 120.978 92.6113C121.911 88.9197 122.795 85.1313 123.688 81.4529L131.437 83.0985Z" fill="#CE7A63"/>
<path d="M189.094 143.92C189.094 143.92 186.771 144.747 183.282 145.908C173.857 149.041 156.138 153.45 152.456 151.554C147.528 149.019 141.236 129.554 139.058 124.652L153.314 120.032L158.888 141.262C162.766 140.599 166.712 140.433 170.632 140.769C173.25 141.024 177.672 140.976 181.43 140.857C185.187 140.738 188.346 140.549 188.346 140.549L189.094 143.92Z" fill="#CE7A63"/>
<path d="M189.094 143.92C189.094 143.92 186.771 144.747 183.282 145.909C182.758 144.589 181.962 142.516 181.43 140.857C185.214 140.734 188.346 140.549 188.346 140.549L189.094 143.92Z" fill="#08A045"/>
<path d="M187.915 143.317C187.915 143.317 186.872 143.598 186.674 144.465C186.476 145.332 188.179 146.819 188.839 149.437C189.213 150.924 189.42 151.395 189.482 152.108C189.57 153.138 190.392 153.842 191.33 154.286L193.706 139.427C193.706 139.427 191.506 139.053 190.326 139.37C189.147 139.687 187.246 139.99 187.348 140.382C187.88 142.12 188.716 142.872 187.915 143.317Z" fill="#263238"/>
<path d="M128.088 112.425C128.088 112.425 136.932 135.89 139.63 138.077C141.473 139.573 157.639 130.667 157.639 130.667L154.845 115.095L128.088 112.425Z" fill="#263238"/>
<path d="M139.885 139.243C139.885 139.243 154.365 134.988 158.558 130.487L157.595 127.349C157.595 127.349 148.306 133.509 138.142 136.061L139.885 139.243Z" fill="#08A045"/>
<path d="M124.96 149.292C125.721 152.847 122.69 167.772 118.637 185.174C118.122 187.374 117.608 189.609 117.102 191.853H113.296C113.296 191.853 113.269 189.213 113.274 185.104C113.274 172.168 113.577 144.857 115.834 141.438C118.809 136.937 134.116 113.868 134.116 113.868L150.836 112.917C150.836 112.917 154.488 127.283 124.96 149.292Z" fill="#CE7A63"/>
<path d="M118.646 185.174C118.131 187.374 117.616 189.609 117.11 191.853H113.304C113.304 191.853 113.278 189.213 113.282 185.104C114.343 185.069 116.992 185.033 118.646 185.174Z" fill="#08A045"/>
<path d="M114.673 191.4C114.673 191.4 114.101 190.485 113.212 190.551C112.323 190.617 111.404 192.681 109.098 194.071C107.778 194.863 107.395 195.202 106.735 195.466C105.772 195.853 105.345 196.847 105.195 197.873L120.094 195.8C120.094 195.8 119.808 193.6 119.156 192.549C118.505 191.497 117.656 189.781 117.317 190.005C115.795 191.013 115.337 192.047 114.673 191.4Z" fill="#263238"/>
<path d="M135.586 112.35L123.297 127.965C123.297 127.965 132 138.406 137.28 140.831C140.074 142.111 155.408 123.006 155.659 119.614C155.91 116.222 154.238 111.945 154.238 111.945L135.586 112.35Z" fill="#263238"/>
<path d="M135.74 137.966L135.599 137.795C146.005 129.435 152.592 114.682 152.658 114.532L152.86 114.62C152.794 114.77 146.186 129.558 135.74 137.966Z" fill="white"/>
<path d="M122.483 128.247C122.483 128.247 131.67 140.219 137.381 142.507L139.96 140.474C139.96 140.474 130.878 134.033 124.819 125.475L122.483 128.247Z" fill="#08A045"/>
<path d="M154.722 114.519C152.61 119.003 127.785 118.36 127.692 113.397C127.622 109.93 124.868 86.2578 123.618 82.575C122.368 78.8922 130.148 75.3194 130.148 75.3194L132.788 74.3206C132.788 74.3206 138.662 73.1106 142.564 73.8146C142.692 73.841 142.824 73.863 142.952 73.8938C145.671 74.501 148.531 80.4366 150.432 86.3722C151.209 88.7508 151.83 91.1774 152.293 93.6366C153.6 100.91 155.588 112.667 154.722 114.519Z" fill="#08A045"/>
<path d="M150.436 86.372C150.19 86.372 149.917 86.3984 149.631 86.3984C147.202 86.3984 143.664 85.8748 142.151 82.8784C140.32 79.2264 141.759 75.4424 142.56 73.8276C142.688 73.854 142.82 73.876 142.947 73.9068C145.204 74.4128 147.554 78.5752 149.376 83.3712C149.754 84.3436 150.106 85.36 150.436 86.372Z" fill="#CE7A63"/>
<path opacity="0.2" d="M150.436 86.3722C150.19 86.3722 149.917 86.3986 149.631 86.3986L143.145 81.1978L149.38 83.3582C149.754 84.3438 150.106 85.3602 150.436 86.3722Z" fill="black"/>
<path opacity="0.2" d="M151.65 116.49L151.435 116.459C152.887 106.339 147.074 86.4249 147.013 86.2225L147.224 86.1609C147.286 86.3633 153.12 106.317 151.65 116.49Z" fill="white"/>
<path opacity="0.2" d="M127.191 86.3546L127.591 91.727C127.591 91.727 135.92 91.8722 140.672 89.8394C140.672 89.8394 140.584 85.3294 139.647 84.1194C139.647 84.1194 135.37 85.8706 127.191 86.3546Z" fill="white"/>
<path d="M129.259 77.2464C129.787 77.5368 130.579 78.2452 131.956 77.8316C133.716 77.3124 134.825 74.7076 134.71 73.8936C133.175 71.7288 131.63 69.124 131.085 66.7876L129.73 69.5596L127.763 73.5856L127.895 73.7396C127.952 73.81 128 73.8848 128.053 73.9552C128.182 74.1257 128.301 74.3035 128.41 74.4876C128.496 74.63 128.576 74.7769 128.647 74.9276C128.865 75.3748 129.031 75.8458 129.14 76.3312C129.203 76.6327 129.243 76.9387 129.259 77.2464Z" fill="#CE7A63"/>
<g opacity="0.2">
<path d="M129.136 76.34C130.2 75.57 131.221 73.9684 131.12 72.5824C131.054 71.6804 130.429 71.0072 130.082 71.0644L128.405 74.492C128.492 74.6345 128.571 74.7813 128.643 74.932C128.861 75.3807 129.027 75.8532 129.136 76.34Z" fill="black"/>
</g>
<path d="M130.17 62.3922C129.863 61.5392 129.343 60.779 128.66 60.1837C127.976 59.5884 127.152 59.178 126.265 58.9914C125.378 58.8048 124.458 58.8484 123.593 59.1179C122.727 59.3874 121.945 59.8738 121.321 60.531C118.47 63.4966 120.336 68.9834 122.522 71.839C124.951 75.007 130.064 74.6814 131.538 70.7346C132.519 68.0946 131.538 66.0442 130.17 62.3746" fill="#CE7A63"/>
<path d="M119.442 63.5405C119.442 63.5405 118.29 64.9749 117.832 64.1609C117.374 63.3469 118.364 62.5153 118.364 62.5153C118.364 62.5153 116.059 61.3625 116.626 60.5837C117.194 59.8049 118.576 60.0205 118.576 60.0205C118.576 60.0205 117.973 57.6445 119.068 57.3805C119.416 57.319 119.772 57.3315 120.114 57.4172C120.456 57.5028 120.776 57.6598 121.053 57.8777C121.053 57.8777 120.982 55.9637 122.043 55.5413C123.103 55.1189 123.688 56.2849 123.688 56.2849C123.688 56.2849 124.788 54.9033 125.809 55.1145C126.83 55.3257 126.755 56.5313 126.755 56.5313C126.755 56.5313 128.075 55.0793 128.841 55.5765C129.077 55.7588 129.265 55.996 129.388 56.2674C129.512 56.5389 129.567 56.8364 129.549 57.1341C129.549 57.1341 130.508 56.5665 130.896 57.4861C131.01 57.7274 131.028 58.0031 130.946 58.2572C130.864 58.5113 130.689 58.7248 130.456 58.8545C130.456 58.8545 131.305 59.1669 131.375 59.7345C131.446 60.3021 130.495 60.8433 129.615 60.0997C128.735 59.3561 122.012 61.1601 119.442 63.5405Z" fill="#263238"/>
<path d="M119.284 63.699C119.284 63.699 119.152 65.7846 119.874 66.2158C120.595 66.647 124.142 62.1414 130.315 62.7266C130.315 62.7266 130.434 60.9402 129.62 60.1262C128.806 59.3122 122.113 60.7642 119.284 63.699Z" fill="#08A045"/>
<path d="M121.752 61.8201C121.752 61.8201 122.153 62.9905 122.857 62.7441C123.561 62.4977 122.857 61.6485 122.857 61.6485C122.857 61.6485 124.458 62.8541 124.969 62.2161C125.479 61.5781 124.133 60.8565 124.133 60.8565C124.133 60.8565 122.474 60.7201 121.752 61.8201Z" fill="#263238"/>
<path d="M125.875 70.7786C125.907 70.9028 125.904 71.0337 125.865 71.1559C125.825 71.2782 125.752 71.3867 125.654 71.469C125.555 71.5513 125.435 71.6038 125.308 71.6206C125.181 71.6374 125.051 71.6177 124.935 71.5637C124.818 71.5098 124.719 71.4239 124.65 71.316C124.58 71.2081 124.543 71.0826 124.542 70.9543C124.541 70.8259 124.576 70.6999 124.644 70.5909C124.712 70.4819 124.809 70.3944 124.925 70.3386C125.109 70.2752 125.311 70.2856 125.488 70.3676C125.666 70.4496 125.804 70.5969 125.875 70.7786Z" fill="white"/>
<path d="M132.752 64.0818C132.818 64.5633 132.787 65.053 132.663 65.5227C132.538 65.9923 132.322 66.4328 132.026 66.8186C131.234 67.8438 130.064 67.3202 129.637 66.1674C129.254 65.1246 129.197 63.3382 130.315 62.7266C131.432 62.115 132.581 62.8938 132.752 64.0818Z" fill="#CE7A63"/>
<path d="M125.343 66.2949C125.47 66.5809 125.422 66.8845 125.233 66.9681C125.044 67.0517 124.793 66.8889 124.656 66.5985C124.52 66.3081 124.577 66.0045 124.766 65.9209C124.956 65.8373 125.206 66.0045 125.343 66.2949Z" fill="#263238"/>
<path d="M122.153 67.6676C122.285 67.958 122.232 68.2616 122.043 68.3452C121.854 68.4288 121.603 68.2616 121.471 67.9712C121.339 67.6808 121.387 67.3816 121.576 67.298C121.766 67.2144 122.016 67.3772 122.153 67.6676Z" fill="#263238"/>
<path d="M120.74 67.1176C120.766 67.1074 120.787 67.0905 120.804 67.0688C120.82 67.0471 120.83 67.0214 120.833 66.9944C120.835 66.8849 120.86 66.7771 120.906 66.6779C120.953 66.5787 121.019 66.4901 121.101 66.418C121.279 66.291 121.495 66.2303 121.713 66.2464C121.733 66.2495 121.753 66.2485 121.773 66.2434C121.792 66.2384 121.811 66.2295 121.827 66.2171C121.843 66.2048 121.856 66.1893 121.866 66.1717C121.876 66.154 121.882 66.1345 121.884 66.1144C121.888 66.0944 121.887 66.074 121.882 66.0544C121.876 66.0347 121.868 66.0164 121.855 66.0003C121.843 65.9843 121.827 65.9709 121.81 65.961C121.792 65.9511 121.773 65.9449 121.752 65.9428C121.452 65.9113 121.15 65.9946 120.908 66.176C120.793 66.2735 120.699 66.3939 120.633 66.5295C120.568 66.6651 120.531 66.8129 120.525 66.9636C120.522 66.9839 120.524 67.0046 120.53 67.0242C120.536 67.0438 120.546 67.0621 120.559 67.0777C120.572 67.0934 120.588 67.1062 120.607 67.1153C120.625 67.1245 120.645 67.1297 120.666 67.1308C120.691 67.1354 120.718 67.1307 120.74 67.1176Z" fill="#263238"/>
<path d="M125.717 65.0232C125.737 65.0121 125.755 64.9972 125.77 64.9792C125.784 64.9652 125.796 64.9485 125.804 64.93C125.811 64.9114 125.815 64.8915 125.815 64.8714C125.815 64.8513 125.811 64.8313 125.804 64.8128C125.796 64.7943 125.784 64.7775 125.77 64.7636C125.533 64.5745 125.236 64.4789 124.934 64.4952C124.785 64.5139 124.642 64.5625 124.512 64.6381C124.383 64.7138 124.27 64.8148 124.181 64.9352C124.156 64.9673 124.145 65.008 124.15 65.0484C124.155 65.0888 124.176 65.1256 124.208 65.1508C124.223 65.1637 124.241 65.1733 124.261 65.1791C124.28 65.1848 124.301 65.1864 124.321 65.184C124.341 65.1815 124.361 65.1749 124.378 65.1647C124.396 65.1544 124.411 65.1407 124.423 65.1244C124.552 64.9456 124.747 64.8253 124.964 64.79C125.184 64.7825 125.399 64.8526 125.572 64.988C125.591 65.0047 125.615 65.0166 125.64 65.0227C125.665 65.0288 125.692 65.029 125.717 65.0232Z" fill="#263238"/>
<path d="M123.376 66.9548C123.481 67.6141 123.393 68.2899 123.121 68.8996C122.681 69.8324 124.34 69.7356 124.34 69.7356L123.376 66.9548Z" fill="#BA4D3C"/>
<path d="M170.1 89.3642C170.045 90.0188 169.869 90.6574 169.58 91.2474C169.274 91.8337 168.916 92.3917 168.511 92.915C168.155 93.355 167.807 93.795 167.451 94.1778C166.738 94.9522 166.025 95.6518 165.304 96.3206C163.856 97.6406 162.382 98.877 160.868 100.039C159.355 101.2 157.824 102.309 156.204 103.361L153.661 100.377C156.068 97.6142 158.572 94.8598 160.767 92.0878C161.313 91.4014 161.836 90.7062 162.285 90.033C162.457 89.7866 162.611 89.549 162.752 89.3202C162.403 89.0607 162.038 88.8227 161.66 88.6074C160.972 88.2166 160.264 87.8612 159.54 87.5426C158.783 87.195 157.991 86.8694 157.181 86.557C155.558 85.941 153.877 85.3558 152.17 84.797C150.462 84.2382 148.738 83.7322 146.995 83.235C145.253 82.7378 143.475 82.245 141.799 81.7918L143.638 74.0874C145.565 74.5274 147.374 74.9982 149.217 75.5306C151.061 76.063 152.878 76.6394 154.7 77.2906C156.521 77.9418 158.334 78.6106 160.142 79.4334C162.055 80.2458 163.892 81.228 165.629 82.3682C166.12 82.6948 166.593 83.0473 167.046 83.4242C167.582 83.8611 168.075 84.3472 168.52 84.8762C169.155 85.6111 169.627 86.4718 169.906 87.4018C170.09 88.0387 170.155 88.7037 170.1 89.3642Z" fill="#CE7A63"/>
<path d="M153.771 100.333L150.304 103.563L154.999 107.118L156.746 102.665L153.771 100.333Z" fill="#CE7A63"/>
<path d="M152.9 101.297C152.174 101.365 151.462 101.535 150.784 101.803C150.053 102.168 149.772 104.799 149.772 104.799L150.652 103.457L152.9 101.297Z" fill="#CE7A63"/>
<path d="M150.63 103.004C150.63 103.004 149.015 104.918 149.349 105.767C149.684 106.617 150.669 106.045 150.669 106.045C150.669 106.045 150.669 106.951 151.061 107.153C151.187 107.23 151.336 107.261 151.482 107.241C151.628 107.222 151.764 107.154 151.866 107.048C151.866 107.048 151.866 107.827 152.271 107.972C152.538 108.059 152.826 108.059 153.094 107.972C153.094 107.972 152.94 108.289 153.608 108.478C154.277 108.667 155.016 107.123 155.016 107.123L150.63 103.004Z" fill="#CE7A63"/>
<g opacity="0.2">
<path d="M151.611 102.08C151.611 102.08 150.625 102.925 149.992 103.532C149.961 103.686 149.939 103.836 149.904 103.972C150.344 103.532 151.29 102.652 151.774 102.278C151.797 102.255 151.811 102.224 151.813 102.191C151.815 102.158 151.806 102.126 151.786 102.1C151.766 102.073 151.737 102.055 151.705 102.048C151.673 102.042 151.64 102.047 151.611 102.063V102.08Z" fill="black"/>
</g>
<path opacity="0.2" d="M130.636 81.3078C130.199 81.333 129.761 81.2679 129.35 81.1165C128.939 80.9651 128.563 80.7306 128.247 80.4278C127.002 79.1518 127.239 76.987 127.252 76.9078H127.468C127.468 76.9298 127.235 79.0594 128.405 80.2606C129.03 80.903 129.945 81.1714 131.129 81.0658C136.123 80.6258 136.704 73.8014 136.708 73.731H136.928C136.928 73.8014 136.33 80.771 131.146 81.2682C130.97 81.299 130.803 81.3078 130.636 81.3078Z" fill="white"/>
<path d="M105.508 96.2984C105.508 96.2984 105.701 93.39 105.068 92.7344C104.434 92.0788 101.341 94.3668 101.548 95.0884C101.754 95.81 103.831 94.4592 103.831 94.4592C103.831 94.4592 103.677 96.294 104.557 96.6152C105.437 96.9364 105.508 96.2984 105.508 96.2984Z" fill="#CE7A63"/>
<path d="M104.663 93.28C104.663 93.28 103.594 90.7896 102.507 90.75C101.42 90.7104 99.2552 92.95 98.9868 94.0808C98.7184 95.2116 99.8888 96.6328 101.05 96.3776C102.212 96.1224 104.663 93.28 104.663 93.28Z" fill="#CE7A63"/>
<path d="M101.015 95.8936C101.015 95.8936 100.949 97.746 102.507 98.2432C104.064 98.7404 105.516 96.096 105.516 96.096C105.516 96.096 104.738 93.6144 103.818 93.368C102.898 93.1216 101.015 95.8936 101.015 95.8936Z" fill="#CE7A63"/>
<path opacity="0.2" d="M102.696 94.8421C102.837 94.895 102.986 94.9204 103.136 94.9169C103.636 94.8846 104.127 94.767 104.588 94.5693C104.603 94.563 104.617 94.5538 104.628 94.5422C104.64 94.5306 104.649 94.5169 104.655 94.5017C104.661 94.4865 104.664 94.4703 104.664 94.454C104.664 94.4376 104.661 94.4215 104.654 94.4065C104.641 94.3767 104.616 94.3533 104.586 94.341C104.556 94.3287 104.522 94.3285 104.491 94.3405C104.17 94.4813 103.242 94.7805 102.788 94.6133C102.741 94.5957 102.697 94.5688 102.66 94.534C102.623 94.4992 102.593 94.4574 102.573 94.4109C102.353 93.8741 103.633 93.0909 104.1 92.8313C104.114 92.8238 104.127 92.8136 104.138 92.8011C104.148 92.7887 104.156 92.7743 104.161 92.7587C104.166 92.7432 104.168 92.7268 104.166 92.7105C104.165 92.6943 104.16 92.6785 104.152 92.6641C104.137 92.6356 104.11 92.6142 104.079 92.6044C104.048 92.5946 104.015 92.597 103.985 92.6113C103.601 92.8146 103.238 93.0564 102.903 93.3329C102.463 93.1921 102.023 92.3385 101.86 92.0129C101.847 91.9831 101.822 91.96 101.791 91.9484C101.761 91.9369 101.727 91.9379 101.697 91.9513C101.668 91.9656 101.646 91.9903 101.634 92.0205C101.623 92.0508 101.623 92.0842 101.636 92.1141C101.693 92.2417 102.155 93.2273 102.709 93.5221C102.569 93.6311 102.461 93.7752 102.394 93.9398C102.328 94.1044 102.306 94.2836 102.331 94.4593C102.324 94.4877 102.315 94.5157 102.304 94.5429C101.138 94.3625 100.756 93.0821 100.751 93.0689C100.742 93.0374 100.72 93.0109 100.692 92.9952C100.663 92.9795 100.629 92.9759 100.597 92.9853C100.566 92.9946 100.539 93.0161 100.524 93.045C100.508 93.0738 100.504 93.1078 100.514 93.1393C100.514 93.1965 100.954 94.5517 102.221 94.7805C102.065 95.1064 101.855 95.4039 101.6 95.6605C100.368 95.5329 99.9637 94.1821 99.9593 94.1689C99.9547 94.1532 99.9471 94.1386 99.9369 94.1259C99.9267 94.1132 99.9141 94.1027 99.8997 94.0949C99.8854 94.0871 99.8697 94.0823 99.8535 94.0806C99.8373 94.079 99.8209 94.0806 99.8053 94.0853C99.7743 94.0954 99.7484 94.117 99.7329 94.1457C99.7173 94.1743 99.7133 94.2078 99.7217 94.2393C99.7217 94.2965 100.135 95.6209 101.385 95.8717C101.275 95.9755 101.157 96.0711 101.033 96.1577C101.02 96.1669 101.008 96.1787 100.999 96.1923C100.991 96.2059 100.985 96.2212 100.982 96.2371C100.979 96.253 100.979 96.2694 100.983 96.2852C100.986 96.301 100.993 96.316 101.002 96.3293C101.013 96.3459 101.028 96.3594 101.046 96.3686C101.064 96.3779 101.083 96.3825 101.103 96.3821C101.126 96.3898 101.151 96.3898 101.174 96.3821C101.707 96.0015 102.141 95.4992 102.441 94.9169C102.368 95.2051 102.378 95.5082 102.472 95.7905C102.566 96.0727 102.738 96.3223 102.969 96.5097C102.989 96.5161 103.01 96.5161 103.03 96.5097C103.052 96.5099 103.072 96.5048 103.091 96.4948C103.109 96.4848 103.125 96.4702 103.136 96.4525C103.153 96.4243 103.158 96.3907 103.151 96.3587C103.143 96.3268 103.124 96.2989 103.096 96.2809C103.096 96.2809 102.511 95.8893 102.696 94.8641V94.8421Z" fill="black"/>
<path d="M96.6415 188.074L92.1931 188.76C92.1491 188.637 91.2163 186.256 89.7467 182.732C89.6103 182.415 89.4739 182.09 89.3331 181.755C86.5963 175.234 82.2931 165.51 78.3331 158.589C76.9981 156.103 75.8849 153.505 75.0067 150.823L74.9011 150.524C69.5903 135.15 64.8691 109.441 64.8691 109.441C64.8691 109.441 80.4583 104.487 83.1467 109.441C85.8351 114.396 85.1311 151.18 85.1311 151.18C88.5279 155.514 92.6859 171.261 94.9651 180.73C95.9903 185.051 96.6415 188.074 96.6415 188.074Z" fill="#FF8B7B"/>
<path d="M90.5035 184.554C91.5287 187.044 92.1535 188.641 92.1887 188.742L96.6371 188.069C96.6371 188.069 96.1267 185.689 95.2819 182.129C93.6375 182.831 92.0412 183.641 90.5035 184.554Z" fill="#08A045"/>
<path opacity="0.2" d="M84.04 150.995L82.9356 154.924L75.0156 150.806L74.91 150.506L84.04 150.995Z" fill="black"/>
<path d="M86.0111 130.337L83.1423 130.601L81.7607 127.292L81.4967 130.918C81.4967 130.918 71.8167 133.558 68.7367 132.779L68.3847 130.579L67.3199 123.803L85.1663 111.373L86.0111 130.337Z" fill="#08A045"/>
<path opacity="0.2" d="M85.1619 111.373C85.5271 112.917 83.9959 121.202 75.8779 126.724C71.9179 129.404 69.7707 130.244 68.3979 130.557L67.3199 123.803L85.1619 111.373Z" fill="black"/>
<path d="M61.9301 82.28C62.1765 85.6108 62.2732 88.88 62.216 92.1976C62.194 93.8564 62.1237 95.524 61.9917 97.2092C61.8753 98.9546 61.6445 100.69 61.3009 102.406C61.1095 103.435 60.7964 104.438 60.3681 105.393C60.2126 105.728 60.0286 106.049 59.8181 106.352C59.511 106.81 59.1252 107.209 58.6785 107.532C58.4079 107.72 58.1115 107.868 57.7985 107.972C57.6549 108.022 57.5078 108.062 57.3585 108.09C57.2333 108.113 57.107 108.129 56.9801 108.139C56.8716 108.145 56.7629 108.145 56.6544 108.139C56.5576 108.139 56.4521 108.139 56.3597 108.139C56.2673 108.139 56.0297 108.099 55.9197 108.073C55.5135 107.987 55.119 107.852 54.7449 107.672C54.2481 107.435 53.7726 107.155 53.3237 106.836C52.9233 106.555 52.5625 106.273 52.2149 105.992C51.5197 105.424 50.8949 104.852 50.2613 104.271C47.8679 101.967 45.6307 99.5068 43.5645 96.9056L45.8481 94.6C47.1065 95.5768 48.3649 96.5888 49.6365 97.5524C50.9081 98.516 52.1665 99.484 53.4337 100.377C54.0673 100.817 54.6965 101.257 55.3169 101.64C55.6249 101.829 55.9285 102.005 56.1969 102.155C56.4246 102.28 56.6632 102.385 56.9097 102.467C56.9845 102.494 57.0285 102.467 56.9097 102.441C56.858 102.426 56.8049 102.417 56.7513 102.414H56.606C56.5475 102.41 56.4886 102.41 56.4301 102.414C56.3545 102.418 56.2794 102.428 56.2057 102.445C56.104 102.462 56.0039 102.487 55.9065 102.52L55.7569 102.577C55.6966 102.6 55.6378 102.626 55.5809 102.656C55.5217 102.685 55.4644 102.717 55.4093 102.753L55.2861 102.837C55.1646 102.916 55.0538 103.011 54.9561 103.118C54.9561 103.118 54.9561 103.088 54.9561 103.008C55.1163 102.458 55.2326 101.896 55.3037 101.328C55.4787 99.8479 55.5786 98.3603 55.6029 96.8704C55.6381 95.326 55.6293 93.7552 55.6029 92.18C55.5457 89.034 55.4445 85.8176 55.3169 82.6892L61.9301 82.28Z" fill="#FF8B7B"/>
<path d="M46.2748 95.1193C46.2748 95.1193 46.4508 92.4573 45.8656 91.8633C45.2804 91.2693 42.46 93.3549 42.6448 94.0149C42.8296 94.6749 44.7304 93.4341 44.7304 93.4341C44.7304 93.4341 44.5852 95.1149 45.3948 95.4053C46.2044 95.6957 46.2748 95.1193 46.2748 95.1193Z" fill="#FF8B7B"/>
<path d="M45.5048 92.3649C45.5048 92.3649 44.5236 90.0901 43.5292 90.0549C42.5348 90.0197 40.5592 92.0701 40.3172 93.0953C40.0752 94.1205 41.14 95.4317 42.2048 95.1985C43.2696 94.9653 45.5048 92.3649 45.5048 92.3649Z" fill="#FF8B7B"/>
<path d="M42.1652 94.7452C42.1652 94.7452 42.1036 96.4436 43.5292 96.8968C44.9548 97.35 46.2836 94.93 46.2836 94.93C46.2836 94.93 45.5708 92.664 44.7304 92.4396C43.89 92.2152 42.1652 94.7452 42.1652 94.7452Z" fill="#FF8B7B"/>
<path opacity="0.2" d="M43.7008 93.786C43.8303 93.8335 43.9677 93.8559 44.1056 93.852C44.5604 93.8224 45.0068 93.7152 45.4256 93.5352C45.4393 93.5299 45.4518 93.5218 45.4624 93.5116C45.4729 93.5014 45.4813 93.4891 45.4871 93.4756C45.4928 93.4621 45.4958 93.4475 45.4958 93.4328C45.4958 93.4181 45.4929 93.4035 45.4872 93.39C45.4746 93.3627 45.4522 93.3412 45.4245 93.3298C45.3967 93.3184 45.3657 93.3179 45.3376 93.3284C45.0428 93.456 44.1936 93.7464 43.78 93.5792C43.7356 93.5632 43.6951 93.5381 43.661 93.5055C43.6269 93.4729 43.6 93.4336 43.582 93.39C43.384 92.9016 44.5544 92.1668 44.9768 91.9468C45.003 91.9334 45.0229 91.9101 45.032 91.882C45.041 91.854 45.0386 91.8234 45.0252 91.7972C45.0118 91.7709 44.9885 91.7511 44.9604 91.742C44.9324 91.7329 44.9018 91.7354 44.8756 91.7488C44.5266 91.9309 44.1977 92.1491 43.8944 92.4C43.5072 92.2724 43.076 91.4936 42.9396 91.19C42.9271 91.1628 42.9044 91.1415 42.8765 91.1308C42.8485 91.1201 42.8174 91.1208 42.79 91.1328C42.7636 91.1461 42.7433 91.1691 42.7334 91.1969C42.7236 91.2248 42.7249 91.2555 42.7372 91.2824C42.7856 91.3968 43.208 92.2988 43.714 92.5672C43.5862 92.6662 43.487 92.7975 43.4267 92.9475C43.3664 93.0975 43.3471 93.2608 43.3708 93.4208C43.3645 93.448 43.3557 93.4745 43.3444 93.5C42.2796 93.3372 41.9276 92.18 41.9232 92.1536C41.915 92.125 41.8958 92.1008 41.8698 92.0864C41.8438 92.0719 41.8132 92.0684 41.7846 92.0766C41.756 92.0848 41.7318 92.1039 41.7174 92.1299C41.7029 92.1559 41.6994 92.1866 41.7076 92.2152C41.7076 92.2724 42.0948 93.5088 43.2696 93.7156C43.1277 94.0118 42.9356 94.2812 42.702 94.512C41.5756 94.3976 41.206 93.1656 41.2016 93.1524C41.1934 93.1232 41.1739 93.0985 41.1476 93.0837C41.1212 93.0688 41.09 93.0651 41.0608 93.0732C41.0324 93.0823 41.0088 93.1021 40.9948 93.1284C40.9809 93.1547 40.9777 93.1854 40.986 93.214C41.0922 93.5707 41.2871 93.8947 41.5526 94.1556C41.8181 94.4164 42.1454 94.6057 42.504 94.7056C42.4025 94.8002 42.2952 94.8883 42.1828 94.9696C42.1578 94.9866 42.1405 95.0127 42.1347 95.0424C42.1289 95.0721 42.1351 95.1029 42.152 95.128C42.1624 95.1428 42.1763 95.1549 42.1923 95.1633C42.2084 95.1717 42.2262 95.1762 42.2444 95.1764C42.266 95.182 42.2887 95.182 42.3104 95.1764C42.7978 94.8267 43.1958 94.3669 43.472 93.8344C43.4038 94.0976 43.4127 94.3748 43.4977 94.6331C43.5828 94.8913 43.7403 95.1196 43.9516 95.2908C43.9702 95.2965 43.9902 95.2965 44.0088 95.2908C44.0281 95.2913 44.0473 95.2867 44.0643 95.2774C44.0813 95.2681 44.0955 95.2545 44.1056 95.238C44.1136 95.2256 44.1191 95.2118 44.1217 95.1973C44.1242 95.1828 44.1239 95.1679 44.1206 95.1535C44.1173 95.1392 44.1112 95.1256 44.1025 95.1137C44.0939 95.1017 44.083 95.0916 44.0704 95.084C43.891 94.9257 43.7608 94.7193 43.6953 94.4892C43.6298 94.2591 43.6317 94.015 43.7008 93.786Z" fill="black"/>
<path d="M83.7672 106.225C75.1696 110.893 62.7528 111.544 62.6956 109.424C62.4712 101.218 59.862 96.2236 57.7896 94.0236C53.5832 89.5532 55.8052 89.1836 55.7656 86.3544C55.7514 85.8112 55.6701 85.2717 55.5236 84.7484C55.4884 84.6252 55.4576 84.502 55.4268 84.3788C54.7052 81.2988 55.4268 78.7116 58.2736 77.4972C58.3924 77.4444 58.5156 77.396 58.6432 77.3476C59.554 77.0176 59.4 76.8196 60.3284 76.5292H60.3724C62.8178 75.8106 65.3097 75.2608 67.8304 74.8836L69.1064 74.6724C69.6652 74.5844 70.2196 74.5008 70.7564 74.4348L71.5704 74.3424C72.2663 74.2659 72.9705 74.3366 73.6373 74.5501C74.304 74.7635 74.9184 75.1149 75.4405 75.5813C75.9625 76.0478 76.3806 76.6189 76.6675 77.2575C76.9543 77.8961 77.1036 78.5879 77.1056 79.288C77.1056 81.048 77.1848 82.7523 77.3432 84.4008C78.0025 92.0321 80.187 99.4533 83.7672 106.225Z" fill="#263238"/>
<path d="M58.2736 77.5017C57.9216 78.4565 57.0328 81.0217 56.144 82.9973C55.9345 83.474 55.6949 83.9369 55.4268 84.3833C54.7052 81.3077 55.44 78.7161 58.2736 77.5017Z" fill="#FF8B7B"/>
<path d="M67.8303 74.8748C67.3155 76.7052 65.9515 80.784 63.7647 81.9764C61.0631 83.4504 58.5947 79.9612 60.3723 76.5204C62.8177 75.8018 65.3096 75.2519 67.8303 74.8748Z" fill="#FF8B7B"/>
<path d="M77.3432 84.392C75.1696 85.9452 72.6968 86.7504 71.28 85.778C68.3496 83.7628 70.1976 76.4104 70.7564 74.426L71.5704 74.3336C72.2663 74.2571 72.9705 74.3278 73.6373 74.5413C74.3041 74.7547 74.9184 75.1061 75.4405 75.5725C75.9626 76.039 76.3806 76.6101 76.6675 77.2487C76.9544 77.8873 77.1037 78.5791 77.1056 79.2792C77.1056 79.9656 77.1056 80.6388 77.154 81.3032C77.1804 82.2272 77.2376 83.1292 77.3124 84.0092C77.3212 84.1368 77.33 84.2644 77.3432 84.392Z" fill="#FF8B7B"/>
<path opacity="0.2" d="M77.3124 84.0092L72.9388 80.9292L77.154 81.29C77.1804 82.2272 77.2376 83.1292 77.3124 84.0092Z" fill="black"/>
<path opacity="0.2" d="M57.2924 83.8642L56.76 88.5238C56.76 88.5238 63.5448 88.6822 67.76 86.9398C67.76 86.9398 68.398 83.0282 67.8216 81.9766C67.8216 81.9766 64.0508 83.477 57.2924 83.8642Z" fill="white"/>
<path d="M67.2936 75.3368C66.2271 76.4481 65.2474 77.6396 64.3632 78.9008C64.0735 79.3164 63.7368 79.6973 63.36 80.036C62.3612 80.9556 61.3932 81.5848 60.962 81.0964C60.8637 80.9886 60.7794 80.8689 60.7112 80.74C60.4742 80.3057 60.3666 79.8126 60.4009 79.3191C60.4352 78.8255 60.61 78.3521 60.9048 77.9548C61.1984 77.5738 61.3755 77.116 61.4145 76.6365C61.4536 76.1571 61.3529 75.6766 61.1248 75.2532C60.884 74.7331 60.5811 74.2441 60.2228 73.7968L60.6936 72.8376L63.2852 68.376C63.822 70.7652 65.12 74.5316 67.2936 75.3368Z" fill="#FF8B7B"/>
<path opacity="0.2" d="M61.1336 75.2401C60.8928 74.72 60.5899 74.231 60.2316 73.7837L60.7024 72.8245L62.6956 72.5913C62.4822 73.6227 61.9329 74.5543 61.1336 75.2401Z" fill="black"/>
<path d="M63.2676 63.9848C64.1476 67.914 64.5876 69.5596 63.2676 72.0896C61.2436 75.8956 56.3156 76.076 54.3092 72.4812C52.5008 69.2428 51.3789 63.3644 54.6436 60.764C57.9084 58.1636 62.414 60.0556 63.2852 63.9848" fill="#FF8B7B"/>
<path d="M52.5625 66.5193C52.5625 66.5193 49.4077 64.1785 53.5833 60.7113C53.5833 60.7113 56.4697 56.8173 61.0017 58.4101C65.5337 60.0029 66.6073 65.1333 63.9849 70.0965C63.9849 70.0965 63.6945 66.0749 62.0269 65.2345C60.3593 64.3941 58.5949 63.7209 59.0173 62.3745C59.0173 62.3745 54.0629 64.4469 53.3589 63.1709C53.0553 63.4041 52.5449 63.9453 52.5625 66.5193Z" fill="#263238"/>
<path d="M79.838 70.9633C72.402 72.6045 73.4316 67.2849 71.236 67.2101C69.0404 67.1353 70.2064 69.7665 68.0152 70.3649C65.824 70.9633 63.9584 67.7733 63.9584 67.7733L64.174 66.6777C64.174 66.5281 65.2124 65.6877 65.956 66.2377C66.6996 66.7877 67.7996 64.3633 70.136 63.2281C72.4724 62.0929 74.4216 63.8309 75.5172 66.8889C76.6128 69.9469 79.838 70.9633 79.838 70.9633Z" fill="#263238"/>
<path d="M55.2684 71.4253C55.2684 71.4253 57.288 70.6993 57.7808 69.8853C57.7808 69.8853 57.948 71.4253 56.9008 71.9049C56.6189 72.048 56.2929 72.078 55.9895 71.9889C55.6861 71.8998 55.4282 71.6982 55.2684 71.4253Z" fill="white"/>
<path d="M56.76 66.6951C56.848 67.0119 56.76 67.3111 56.5488 67.3727C56.3376 67.4343 56.1088 67.2231 56.012 66.9107C55.9152 66.5983 56.012 66.2903 56.2232 66.2331C56.4344 66.1759 56.6632 66.3827 56.76 66.6951Z" fill="#263238"/>
<path d="M53.592 67.6898C53.6844 68.0022 53.592 68.3058 53.3852 68.3674C53.1784 68.429 52.9452 68.2178 52.8484 67.901C52.7516 67.5842 52.8484 67.285 53.0596 67.2278C53.2708 67.1706 53.4996 67.3774 53.592 67.6898Z" fill="#263238"/>
<path d="M53.1564 67.2188H52.36C52.36 67.2188 52.9144 67.6939 53.1784 67.2188" fill="#263238"/>
<path d="M54.9252 67.8745C54.9252 67.8745 54.6744 68.7105 54.3576 69.4629C54.3318 69.5199 54.3194 69.5819 54.3211 69.6444C54.3228 69.7069 54.3386 69.7682 54.3674 69.8236C54.3962 69.8791 54.4372 69.9273 54.4873 69.9647C54.5374 70.002 54.5954 70.0276 54.6568 70.0393C54.9474 70.0881 55.2425 70.1044 55.5368 70.0877L54.9252 67.8745Z" fill="#FF5652"/>
<path d="M65.406 66.2684C65.3559 66.6314 65.2292 66.9796 65.0342 67.2899C64.8393 67.6002 64.5805 67.8654 64.2752 68.068C63.4876 68.552 62.7924 67.7336 62.7572 66.7084C62.7308 65.7844 63.1048 64.4204 64.02 64.3632C64.9352 64.306 65.56 65.3092 65.406 66.2684Z" fill="#FF8B7B"/>
<path d="M57.552 65.7317C57.4986 65.7276 57.4485 65.7041 57.4112 65.6657C57.2568 65.4809 57.0603 65.3358 56.8384 65.2424C56.6164 65.149 56.3753 65.1101 56.1352 65.1289C56.0846 65.1353 56.0335 65.122 55.9925 65.0916C55.9515 65.0613 55.9238 65.0164 55.9152 64.9661C55.9075 64.916 55.9198 64.8649 55.9495 64.8238C55.9791 64.7826 56.0236 64.7547 56.0736 64.7461C56.3782 64.7194 56.6848 64.7658 56.968 64.8813C57.2511 64.9969 57.5026 65.1783 57.7016 65.4105C57.7376 65.4468 57.7578 65.4958 57.7578 65.5469C57.7578 65.598 57.7376 65.647 57.7016 65.6833C57.6641 65.7134 57.6177 65.7305 57.5696 65.7317" fill="#263238"/>
<path d="M52.1268 66.6336C52.1023 66.6398 52.0769 66.6411 52.052 66.6373C52.027 66.6335 52.0031 66.6248 51.9816 66.6116C51.9389 66.5844 51.9083 66.5419 51.896 66.4928C51.8838 66.4437 51.8908 66.3917 51.9156 66.3476C52.0669 66.0826 52.279 65.8574 52.5346 65.6906C52.7901 65.5238 53.0817 65.4202 53.3852 65.3884C53.4365 65.3884 53.4858 65.4088 53.5221 65.4451C53.5584 65.4814 53.5788 65.5307 53.5788 65.582C53.5788 65.6334 53.5584 65.6826 53.5221 65.7189C53.4858 65.7552 53.4365 65.7756 53.3852 65.7756C53.1448 65.8022 52.9143 65.886 52.713 66.0199C52.5116 66.1539 52.3453 66.3342 52.228 66.5456C52.216 66.5682 52.1991 66.5879 52.1786 66.6031C52.158 66.6183 52.1343 66.6287 52.1092 66.6336" fill="#263238"/>
<path d="M56.32 66.2244H55.484C55.484 66.2244 56.0384 66.704 56.3024 66.2244" fill="#263238"/>
<path d="M52.8264 61.4065C52.8264 61.4065 49.6012 61.5957 47.0492 62.0225C45.0692 62.3525 47.3968 63.7517 52.5448 63.7561C57.6928 63.7605 60.2316 61.7717 60.2316 61.7717C56.8128 61.7893 53.8912 61.7365 52.8264 61.4065Z" fill="#08A045"/>
<path opacity="0.2" d="M52.8264 61.4065C52.8264 61.4065 49.6012 61.5957 47.0492 62.0225C45.0692 62.3525 47.3968 63.7517 52.5448 63.7561C57.6928 63.7605 60.2316 61.7717 60.2316 61.7717C56.8128 61.7893 53.8912 61.7365 52.8264 61.4065Z" fill="black"/>
<path d="M52.5448 61.4242C52.6838 60.9382 52.9636 60.5042 53.3488 60.1769C53.734 59.8496 54.2075 59.6436 54.7096 59.585C57.4352 60.071 60.2252 60.071 62.9508 59.585C63.472 59.7521 63.9316 60.0707 64.2709 60.5002C64.6103 60.9296 64.8139 61.4504 64.856 61.9962C60.7499 62.5144 56.5852 62.3209 52.5448 61.4242Z" fill="#08A045"/>
<path opacity="0.1" d="M52.5448 61.4242C52.6838 60.9382 52.9636 60.5042 53.3488 60.1769C53.734 59.8496 54.2075 59.6436 54.7096 59.585C57.4352 60.071 60.2252 60.071 62.9508 59.585C63.472 59.7521 63.9316 60.0707 64.2709 60.5002C64.6103 60.9296 64.8139 61.4504 64.856 61.9962C60.7499 62.5144 56.5852 62.3209 52.5448 61.4242Z" fill="white"/>
<path d="M77.1627 145.807L83.7627 149.719L81.1579 152.09C81.1579 152.09 79.2351 151.686 76.2652 150.955C65.846 148.399 42.5699 141.86 44.3343 134.864C46.2791 127.151 58.8543 114.919 63.7647 110.273L83.7672 106.225C90.1516 117.533 58.8015 134.979 57.5079 134.169L77.1627 145.807Z" fill="#FF8B7B"/>
<path d="M83.7673 149.719L81.1625 152.091C81.1625 152.091 79.2397 151.686 76.2697 150.955L75.6801 150.81L77.1629 145.807L83.7673 149.719Z" fill="#08A045"/>
<path d="M62.6955 109.419L55.4399 117.854L64.4555 123.006L67.3155 121.946L66.5939 124.282L71.4779 128.242C71.4779 128.242 90.4683 115.922 83.7979 106.242C77.8447 107.567 69.4671 105.798 62.6955 109.419Z" fill="#08A045"/>
<path opacity="0.2" d="M69.6652 125.682L69.5508 125.492C79.1516 119.636 81.9588 114.646 82.6232 111.496C83.27 108.416 82.0204 106.581 82.0072 106.559L82.1876 106.436C82.2404 106.511 83.5076 108.368 82.8388 111.531C82.17 114.695 79.3408 119.777 69.6652 125.682Z" fill="white"/>
<path d="M93.6408 188.32C93.6408 188.32 92.7828 187.669 91.9732 188.038C91.1636 188.408 91.0272 190.678 89.3552 192.79C88.4092 193.992 88.1584 194.445 87.6304 194.924C86.8692 195.624 86.8164 196.706 87.032 197.718L100.232 190.533C100.232 190.533 99.1892 188.562 98.2168 187.818C97.2444 187.075 95.8408 185.75 95.5768 186.08C94.5472 187.532 94.4856 188.663 93.6408 188.32Z" fill="#263238"/>
<path d="M82.2536 150.99C82.2536 150.99 81.1888 150.814 80.6476 151.523C80.1064 152.231 81.048 154.29 80.5728 156.948C80.3 158.453 80.2912 158.968 80.0536 159.641C79.706 160.618 80.1724 161.599 80.8368 162.391L89.1352 149.838C89.1352 149.838 87.2872 148.588 86.0552 148.386C84.8232 148.183 82.9752 147.677 82.9312 148.082C82.6936 149.886 83.16 150.92 82.2536 150.99Z" fill="#263238"/>
<path d="M95.0048 84.4802C95.0048 84.5814 95.0048 84.687 94.9696 84.7926C94.9344 84.8982 94.9344 85.0038 94.9168 85.0742C94.8491 85.3504 94.7564 85.62 94.6396 85.8794C94.4849 86.2081 94.2977 86.5206 94.0808 86.8122C93.7792 87.2212 93.4468 87.6066 93.0864 87.965C92.4817 88.5532 91.8457 89.1084 91.1812 89.6282C90.5564 90.1298 89.9228 90.6006 89.2848 91.0494C86.7715 92.8197 84.1531 94.436 81.444 95.8894L79.5916 93.1966C80.6872 92.2066 81.8268 91.2342 82.9136 90.2266C84.0004 89.219 85.1136 88.2422 86.152 87.2434C86.6712 86.7418 87.186 86.2402 87.6744 85.7386C87.934 85.4702 88.1848 85.1974 88.4224 84.929C88.1056 84.7926 87.7536 84.6606 87.3928 84.5374C86.7768 84.3174 86.1212 84.1326 85.4568 83.9346C84.1368 83.5518 82.72 83.235 81.312 82.9182C78.5004 82.3022 75.592 81.761 72.7584 81.233L73.7572 74.7122C76.822 75.138 79.8589 75.7448 82.852 76.5294C84.3612 76.9166 85.8616 77.3742 87.384 77.8978C88.1452 78.1618 88.9064 78.4654 89.6852 78.8042C90.5206 79.163 91.328 79.5836 92.1008 80.0626C92.5842 80.365 93.0366 80.7143 93.4516 81.1054C93.5813 81.225 93.7047 81.3513 93.8212 81.4838C93.9598 81.6372 94.0891 81.7988 94.2084 81.9678L94.402 82.2582C94.4636 82.3682 94.5296 82.4826 94.5868 82.597C94.6507 82.7245 94.708 82.8552 94.7584 82.9886L94.8332 83.1954C94.8821 83.3483 94.9218 83.5041 94.952 83.6618C94.982 83.8066 94.9982 83.9539 95.0004 84.1018C95.0092 84.2074 95.0092 84.3482 95.0048 84.4802Z" fill="#FF8B7B"/>
<path d="M80.41 92.6992L76.7404 93.9708L79.0812 98.1992L81.8664 95.436L80.41 92.6992Z" fill="#FF8B7B"/>
<path d="M79.4376 93.1349C78.8695 92.9428 78.2768 92.8332 77.6776 92.8093C77.0044 92.8445 75.9176 94.7233 75.9176 94.7233L77.0176 94.0061L79.4376 93.1349Z" fill="#FF8B7B"/>
<path d="M77.1672 93.6584C77.1672 93.6584 75.3192 94.5384 75.2928 95.3084C75.2664 96.0784 76.1728 95.9464 76.1728 95.9464C76.1728 95.9464 75.8868 96.6372 76.1024 96.91C76.1714 97.0094 76.2722 97.0822 76.3882 97.1166C76.5042 97.151 76.6284 97.1449 76.7404 97.0992C76.7404 97.0992 76.4764 97.68 76.7404 97.9264C76.9112 98.0811 77.1271 98.1768 77.3564 98.1992C77.3564 98.1992 77.1364 98.384 77.5764 98.7448C78.0164 99.1056 79.0812 98.1992 79.0812 98.1992L77.1672 93.6584Z" fill="#FF8B7B"/>
<g opacity="0.2">
<path d="M78.2144 93.2801C78.2144 93.2801 77.1936 93.5881 76.516 93.8345C76.4412 93.9357 76.3752 94.0457 76.3004 94.1469C76.7668 93.9709 77.7788 93.6057 78.2628 93.4957C78.2909 93.4884 78.3151 93.4707 78.3307 93.4462C78.3462 93.4217 78.3518 93.3922 78.3464 93.3637C78.3433 93.3495 78.3374 93.3361 78.3291 93.3242C78.3207 93.3123 78.3101 93.3022 78.2978 93.2944C78.2856 93.2866 78.2719 93.2814 78.2576 93.2789C78.2432 93.2765 78.2286 93.2769 78.2144 93.2801Z" fill="black"/>
</g>
</svg>
